<svg width="512" height="512" viewBox="0 0 512 512" fill="none" xmlns="http://www.w3.org/2000/svg">
  <path d="M256 69L378 139.5V280.5L256 351L134 280.5V139.5L256 69Z" stroke="url(#g1)" stroke-width="20"/>
  <path d="M182 136H334L307 170H223V193H302L275 227H223V248H284L257 281H182V136Z" fill="url(#g2)"/>
  <path d="M255 283L300 238H356L311 283H255Z" fill="#F4F6F7"/>
  <path d="M308 283L353 238H409L364 283H308Z" fill="#F4F6F7"/>
  <path d="M232 330L277 285H333L288 330H232Z" fill="#F4F6F7"/>
  <path d="M285 330L330 285H386L341 330H285Z" fill="#F4F6F7"/>
  <defs>
    <linearGradient id="g1" x1="134" y1="210" x2="378" y2="210" gradientUnits="userSpaceOnUse">
      <stop stop-color="#15803D"/>
      <stop offset="1" stop-color="#34C759"/>
    </linearGradient>
    <linearGradient id="g2" x1="182" y1="208.5" x2="334" y2="208.5" gradientUnits="userSpaceOnUse">
      <stop stop-color="#15803D"/>
      <stop offset="1" stop-color="#34C759"/>
    </linearGradient>
  </defs>
</svg>
