<svg width="860" height="180" viewBox="0 0 860 180" fill="none" xmlns="http://www.w3.org/2000/svg">
  <path d="M85 33.5L146.5 69V140L85 175.5L23.5 140V69L85 33.5Z" stroke="url(#g1)" stroke-width="10"/>
  <path d="M48 67H125L111.5 84H68.5V95H109L95.5 112H68.5V121H101L88 138H48V67Z" fill="url(#g2)"/>
  <path d="M84.5 139L107.5 116H136.5L113.5 139H84.5Z" fill="#F4F6F7"/>
  <path d="M112 139L135 116H164L141 139H112Z" fill="#F4F6F7"/>
  <path d="M73 163L96 140H125L102 163H73Z" fill="#F4F6F7"/>
  <path d="M100.5 163L123.5 140H152.5L129.5 163H100.5Z" fill="#F4F6F7"/>
  <path d="M218 44V136" stroke="#F4F6F7" stroke-width="2" stroke-opacity="0.75"/>
  <text x="260" y="82" fill="#F4F6F7" font-family="Montserrat, Arial, sans-serif" font-size="64" letter-spacing="0.26em">EMERALD</text>
  <text x="264" y="126" fill="#16A34A" font-family="Montserrat, Arial, sans-serif" font-size="28" letter-spacing="0.34em">SOLAR SOLUTIONS</text>
  <defs>
    <linearGradient id="g1" x1="23.5" y1="104.5" x2="146.5" y2="104.5" gradientUnits="userSpaceOnUse">
      <stop stop-color="#15803D"/>
      <stop offset="1" stop-color="#34C759"/>
    </linearGradient>
    <linearGradient id="g2" x1="48" y1="102.5" x2="125" y2="102.5" gradientUnits="userSpaceOnUse">
      <stop stop-color="#15803D"/>
      <stop offset="1" stop-color="#34C759"/>
    </linearGradient>
  </defs>
</svg>
